<svg width="34" height="34" viewBox="0 0 34 34" xmlns="http://www.w3.org/2000/svg">
	<path d="M17 0.333252C7.81665 0.333252 0.333313 7.81659 0.333313 16.9999C0.333313 26.1833 7.81665 33.6666 17 33.6666C26.1833 33.6666 33.6666 26.1833 33.6666 16.9999C33.6666 7.81659 26.1833 0.333252 17 0.333252ZM22.6 20.8333C23.0833 21.3166 23.0833 22.1166 22.6 22.5999C22.35 22.8499 22.0333 22.9666 21.7166 22.9666C21.4 22.9666 21.0833 22.8499 20.8333 22.5999L17 18.7666L13.1666 22.5999C12.9166 22.8499 12.6 22.9666 12.2833 22.9666C11.9666 22.9666 11.65 22.8499 11.4 22.5999C10.9166 22.1166 10.9166 21.3166 11.4 20.8333L15.2333 16.9999L11.4 13.1666C10.9166 12.6833 10.9166 11.8833 11.4 11.3999C11.8833 10.9166 12.6833 10.9166 13.1666 11.3999L17 15.2333L20.8333 11.3999C21.3166 10.9166 22.1166 10.9166 22.6 11.3999C23.0833 11.8833 23.0833 12.6833 22.6 13.1666L18.7666 16.9999L22.6 20.8333Z" />
</svg>
