<svg width="20" height="20" viewBox="0 0 20 20" xmlns="http://www.w3.org/2000/svg">
<circle cx="10" cy="10" r="10" />
<path d="M9.52447 5.46353C9.67415 5.00287 10.3259 5.00287 10.4755 5.46353L11.2348 7.80041C11.3018 8.00642 11.4937 8.1459 11.7104 8.1459H14.1675C14.6519 8.1459 14.8532 8.76571 14.4614 9.05041L12.4735 10.4947C12.2983 10.622 12.2249 10.8477 12.2919 11.0537L13.0512 13.3906C13.2009 13.8512 12.6736 14.2343 12.2818 13.9496L10.2939 12.5053C10.1186 12.378 9.88135 12.378 9.70611 12.5053L7.71824 13.9496C7.32638 14.2343 6.79914 13.8512 6.94882 13.3906L7.70812 11.0537C7.77505 10.8477 7.70172 10.622 7.52648 10.4947L5.53861 9.05041C5.14675 8.76571 5.34814 8.1459 5.8325 8.1459H8.28964C8.50626 8.1459 8.69824 8.00642 8.76517 7.80041L9.52447 5.46353Z" fill="#D9D9D9"/>
</svg>
