<svg width="34" height="34" viewBox="0 0 34 34" xmlns="http://www.w3.org/2000/svg">
	<path d="M17 0.333252C7.81665 0.333252 0.333313 7.81659 0.333313 16.9999C0.333313 26.1833 7.81665 33.6666 17 33.6666C26.1833 33.6666 33.6666 26.1833 33.6666 16.9999C33.6666 7.81659 26.1833 0.333252 17 0.333252ZM24.9666 13.1666L15.5166 22.6166C15.2833 22.8499 14.9666 22.9833 14.6333 22.9833C14.3 22.9833 13.9833 22.8499 13.75 22.6166L9.03331 17.8999C8.54998 17.4166 8.54998 16.6166 9.03331 16.1333C9.51665 15.6499 10.3166 15.6499 10.8 16.1333L14.6333 19.9666L23.2 11.3999C23.6833 10.9166 24.4833 10.9166 24.9666 11.3999C25.45 11.8833 25.45 12.6666 24.9666 13.1666Z" />
</svg>
