<svg width="46" height="43" viewBox="0 0 46 43" xmlns="http://www.w3.org/2000/svg">
	<path d="M2.65686 35.596L2.28486 36.796H4.64886L4.27686 35.596C4.13286 35.156 3.99686 34.72 3.86886 34.288C3.74086 33.848 3.61286 33.4 3.48486 32.944H3.43686C3.31686 33.4 3.19286 33.848 3.06486 34.288C2.93686 34.72 2.80086 35.156 2.65686 35.596ZM0.25686 40L2.92086 32.128H4.04886L6.71286 40H5.64486L4.90086 37.6H2.03286L1.27686 40H0.25686ZM7.5882 40V32.128H8.6202L11.4642 37.072L12.3162 38.704H12.3642C12.3402 38.304 12.3122 37.892 12.2802 37.468C12.2562 37.036 12.2442 36.612 12.2442 36.196V32.128H13.1922V40H12.1602L9.3042 35.044L8.4522 33.424H8.4042C8.4362 33.816 8.4642 34.22 8.4882 34.636C8.5202 35.052 8.5362 35.468 8.5362 35.884V40H7.5882ZM16.4737 35.596L16.1017 36.796H18.4657L18.0937 35.596C17.9497 35.156 17.8137 34.72 17.6857 34.288C17.5577 33.848 17.4297 33.4 17.3017 32.944H17.2537C17.1337 33.4 17.0097 33.848 16.8817 34.288C16.7537 34.72 16.6177 35.156 16.4737 35.596ZM14.0737 40L16.7377 32.128H17.8657L20.5297 40H19.4617L18.7177 37.6H15.8497L15.0937 40H14.0737ZM21.4051 40V32.128H22.4011V39.148H25.8451V40H21.4051ZM27.359 40V36.952L24.995 32.128H26.063L27.083 34.348C27.211 34.636 27.335 34.92 27.455 35.2C27.583 35.48 27.711 35.768 27.839 36.064H27.887C28.023 35.768 28.159 35.48 28.295 35.2C28.431 34.92 28.559 34.636 28.679 34.348L29.687 32.128H30.731L28.367 36.952V40H27.359ZM33.5505 40.144C32.9985 40.144 32.4865 40.04 32.0145 39.832C31.5425 39.616 31.1345 39.332 30.7905 38.98L31.3905 38.284C31.6705 38.58 31.9985 38.82 32.3745 39.004C32.7585 39.18 33.1545 39.268 33.5625 39.268C34.0825 39.268 34.4865 39.152 34.7745 38.92C35.0625 38.68 35.2065 38.368 35.2065 37.984C35.2065 37.712 35.1465 37.496 35.0265 37.336C34.9145 37.176 34.7585 37.04 34.5585 36.928C34.3665 36.816 34.1465 36.704 33.8985 36.592L32.7705 36.1C32.5225 35.996 32.2745 35.86 32.0265 35.692C31.7865 35.524 31.5825 35.308 31.4145 35.044C31.2545 34.78 31.1745 34.456 31.1745 34.072C31.1745 33.672 31.2785 33.316 31.4865 33.004C31.7025 32.684 31.9985 32.436 32.3745 32.26C32.7505 32.076 33.1745 31.984 33.6465 31.984C34.1185 31.984 34.5545 32.076 34.9545 32.26C35.3545 32.436 35.6945 32.668 35.9745 32.956L35.4345 33.604C35.1945 33.372 34.9265 33.192 34.6305 33.064C34.3425 32.928 34.0145 32.86 33.6465 32.86C33.2065 32.86 32.8505 32.964 32.5785 33.172C32.3145 33.38 32.1825 33.66 32.1825 34.012C32.1825 34.26 32.2465 34.468 32.3745 34.636C32.5105 34.796 32.6785 34.928 32.8785 35.032C33.0785 35.136 33.2825 35.232 33.4905 35.32L34.6065 35.8C34.9105 35.928 35.1825 36.084 35.4225 36.268C35.6705 36.444 35.8665 36.664 36.0105 36.928C36.1545 37.184 36.2265 37.508 36.2265 37.9C36.2265 38.316 36.1185 38.696 35.9025 39.04C35.6865 39.376 35.3785 39.644 34.9785 39.844C34.5785 40.044 34.1025 40.144 33.5505 40.144ZM37.5366 40V32.128H38.5326V40H37.5366ZM42.633 40.144C42.081 40.144 41.569 40.04 41.097 39.832C40.625 39.616 40.217 39.332 39.873 38.98L40.473 38.284C40.753 38.58 41.081 38.82 41.457 39.004C41.841 39.18 42.237 39.268 42.645 39.268C43.165 39.268 43.569 39.152 43.857 38.92C44.145 38.68 44.289 38.368 44.289 37.984C44.289 37.712 44.229 37.496 44.109 37.336C43.997 37.176 43.841 37.04 43.641 36.928C43.449 36.816 43.229 36.704 42.981 36.592L41.853 36.1C41.605 35.996 41.357 35.86 41.109 35.692C40.869 35.524 40.665 35.308 40.497 35.044C40.337 34.78 40.257 34.456 40.257 34.072C40.257 33.672 40.361 33.316 40.569 33.004C40.785 32.684 41.081 32.436 41.457 32.26C41.833 32.076 42.257 31.984 42.729 31.984C43.201 31.984 43.637 32.076 44.037 32.26C44.437 32.436 44.777 32.668 45.057 32.956L44.517 33.604C44.277 33.372 44.009 33.192 43.713 33.064C43.425 32.928 43.097 32.86 42.729 32.86C42.289 32.86 41.933 32.964 41.661 33.172C41.397 33.38 41.265 33.66 41.265 34.012C41.265 34.26 41.329 34.468 41.457 34.636C41.593 34.796 41.761 34.928 41.961 35.032C42.161 35.136 42.365 35.232 42.573 35.32L43.689 35.8C43.993 35.928 44.265 36.084 44.505 36.268C44.753 36.444 44.949 36.664 45.093 36.928C45.237 37.184 45.309 37.508 45.309 37.9C45.309 38.316 45.201 38.696 44.985 39.04C44.769 39.376 44.461 39.644 44.061 39.844C43.661 40.044 43.185 40.144 42.633 40.144Z" />
	<path d="M33.75 17.5C33.75 17.91 33.41 18.25 33 18.25H26V18.5C26 20 25.1 20.5 24 20.5H18C16.9 20.5 16 20 16 18.5V18.25H13C12.59 18.25 12.25 17.91 12.25 17.5C12.25 17.09 12.59 16.75 13 16.75H16V16.5C16 15 16.9 14.5 18 14.5H24C25.1 14.5 26 15 26 16.5V16.75H33C33.41 16.75 33.75 17.09 33.75 17.5Z" />
	<path d="M33.75 6.5C33.75 6.91 33.41 7.25 33 7.25H30V7.5C30 9 29.1 9.5 28 9.5H22C20.9 9.5 20 9 20 7.5V7.25H13C12.59 7.25 12.25 6.91 12.25 6.5C12.25 6.09 12.59 5.75 13 5.75H20V5.5C20 4 20.9 3.5 22 3.5H28C29.1 3.5 30 4 30 5.5V5.75H33C33.41 5.75 33.75 6.09 33.75 6.5Z" />
</svg>
