<svg width="40" height="43" viewBox="0 0 40 43" xmlns="http://www.w3.org/2000/svg">
	<path d="M2.87366 35.596L2.50166 36.796H4.86566L4.49366 35.596C4.34966 35.156 4.21366 34.72 4.08566 34.288C3.95766 33.848 3.82966 33.4 3.70166 32.944H3.65366C3.53366 33.4 3.40966 33.848 3.28166 34.288C3.15366 34.72 3.01766 35.156 2.87366 35.596ZM0.473656 40L3.13766 32.128H4.26566L6.92966 40H5.86166L5.11766 37.6H2.24966L1.49366 40H0.473656ZM7.709 40V34.168H8.525L8.609 35.008H8.645C8.925 34.728 9.221 34.496 9.533 34.312C9.845 34.12 10.201 34.024 10.601 34.024C11.217 34.024 11.665 34.22 11.945 34.612C12.233 34.996 12.377 35.56 12.377 36.304V40H11.393V36.436C11.393 35.892 11.305 35.496 11.129 35.248C10.953 35 10.673 34.876 10.289 34.876C9.993 34.876 9.725 34.952 9.485 35.104C9.253 35.256 8.989 35.48 8.693 35.776V40H7.709ZM15.3755 40.144C14.8875 40.144 14.4795 40 14.1515 39.712C13.8315 39.416 13.6715 39.008 13.6715 38.488C13.6715 37.848 13.9555 37.36 14.5235 37.024C15.0995 36.68 16.0075 36.44 17.2475 36.304C17.2475 36.056 17.2115 35.82 17.1395 35.596C17.0755 35.372 16.9555 35.192 16.7795 35.056C16.6115 34.912 16.3675 34.84 16.0475 34.84C15.7115 34.84 15.3955 34.904 15.0995 35.032C14.8035 35.16 14.5395 35.304 14.3075 35.464L13.9235 34.78C14.1955 34.604 14.5275 34.436 14.9195 34.276C15.3195 34.108 15.7515 34.024 16.2155 34.024C16.9275 34.024 17.4435 34.244 17.7635 34.684C18.0835 35.116 18.2435 35.696 18.2435 36.424V40H17.4275L17.3435 39.304H17.3075C17.0355 39.528 16.7355 39.724 16.4075 39.892C16.0875 40.06 15.7435 40.144 15.3755 40.144ZM15.6635 39.352C15.9435 39.352 16.2075 39.284 16.4555 39.148C16.7035 39.012 16.9675 38.82 17.2475 38.572V36.952C16.2795 37.072 15.5995 37.252 15.2075 37.492C14.8235 37.732 14.6315 38.04 14.6315 38.416C14.6315 38.744 14.7315 38.984 14.9315 39.136C15.1315 39.28 15.3755 39.352 15.6635 39.352ZM20.8824 40.144C20.5144 40.144 20.2464 40.032 20.0784 39.808C19.9184 39.576 19.8384 39.248 19.8384 38.824V31.456H20.8224V38.896C20.8224 39.048 20.8504 39.16 20.9064 39.232C20.9624 39.296 21.0264 39.328 21.0984 39.328C21.1304 39.328 21.1584 39.328 21.1824 39.328C21.2144 39.32 21.2584 39.312 21.3144 39.304L21.4464 40.048C21.3824 40.08 21.3064 40.104 21.2184 40.12C21.1304 40.136 21.0184 40.144 20.8824 40.144ZM22.753 42.508C22.625 42.508 22.501 42.496 22.381 42.472C22.269 42.448 22.165 42.42 22.069 42.388L22.261 41.608C22.325 41.624 22.397 41.64 22.477 41.656C22.557 41.68 22.633 41.692 22.705 41.692C23.033 41.692 23.305 41.572 23.521 41.332C23.737 41.1 23.905 40.804 24.025 40.444L24.157 40.012L21.817 34.168H22.837L24.025 37.396C24.113 37.644 24.205 37.912 24.301 38.2C24.405 38.488 24.501 38.768 24.589 39.04H24.637C24.725 38.776 24.809 38.5 24.889 38.212C24.969 37.924 25.049 37.652 25.129 37.396L26.173 34.168H27.133L24.937 40.48C24.801 40.864 24.637 41.208 24.445 41.512C24.261 41.816 24.029 42.056 23.749 42.232C23.477 42.416 23.145 42.508 22.753 42.508ZM29.5425 40.144C29.1265 40.144 28.7305 40.068 28.3545 39.916C27.9785 39.756 27.6505 39.564 27.3705 39.34L27.8625 38.68C28.1185 38.88 28.3825 39.048 28.6545 39.184C28.9265 39.312 29.2345 39.376 29.5785 39.376C29.9625 39.376 30.2505 39.288 30.4425 39.112C30.6345 38.928 30.7305 38.712 30.7305 38.464C30.7305 38.264 30.6625 38.096 30.5265 37.96C30.3985 37.824 30.2305 37.712 30.0225 37.624C29.8225 37.528 29.6145 37.44 29.3985 37.36C29.1265 37.256 28.8585 37.14 28.5945 37.012C28.3305 36.876 28.1145 36.704 27.9465 36.496C27.7785 36.28 27.6945 36.008 27.6945 35.68C27.6945 35.208 27.8705 34.816 28.2225 34.504C28.5825 34.184 29.0785 34.024 29.7105 34.024C30.0705 34.024 30.4065 34.088 30.7185 34.216C31.0305 34.344 31.2985 34.5 31.5225 34.684L31.0425 35.308C30.8425 35.156 30.6345 35.032 30.4185 34.936C30.2025 34.84 29.9665 34.792 29.7105 34.792C29.3425 34.792 29.0705 34.876 28.8945 35.044C28.7265 35.212 28.6425 35.408 28.6425 35.632C28.6425 35.816 28.7025 35.968 28.8225 36.088C28.9425 36.2 29.0985 36.3 29.2905 36.388C29.4825 36.468 29.6865 36.552 29.9025 36.64C30.1825 36.744 30.4585 36.864 30.7305 37C31.0025 37.128 31.2265 37.304 31.4025 37.528C31.5865 37.744 31.6785 38.036 31.6785 38.404C31.6785 38.716 31.5945 39.004 31.4265 39.268C31.2665 39.532 31.0265 39.744 30.7065 39.904C30.3945 40.064 30.0065 40.144 29.5425 40.144ZM32.8059 40V34.168H33.7899V40H32.8059ZM33.3099 32.968C33.1179 32.968 32.9579 32.912 32.8299 32.8C32.7099 32.68 32.6499 32.52 32.6499 32.32C32.6499 32.128 32.7099 31.972 32.8299 31.852C32.9579 31.732 33.1179 31.672 33.3099 31.672C33.5019 31.672 33.6579 31.732 33.7779 31.852C33.9059 31.972 33.9699 32.128 33.9699 32.32C33.9699 32.52 33.9059 32.68 33.7779 32.8C33.6579 32.912 33.5019 32.968 33.3099 32.968ZM37.043 40.144C36.627 40.144 36.231 40.068 35.855 39.916C35.479 39.756 35.151 39.564 34.871 39.34L35.363 38.68C35.619 38.88 35.883 39.048 36.155 39.184C36.427 39.312 36.735 39.376 37.079 39.376C37.463 39.376 37.751 39.288 37.943 39.112C38.135 38.928 38.231 38.712 38.231 38.464C38.231 38.264 38.163 38.096 38.027 37.96C37.899 37.824 37.731 37.712 37.523 37.624C37.323 37.528 37.115 37.44 36.899 37.36C36.627 37.256 36.359 37.14 36.095 37.012C35.831 36.876 35.615 36.704 35.447 36.496C35.279 36.28 35.195 36.008 35.195 35.68C35.195 35.208 35.371 34.816 35.723 34.504C36.083 34.184 36.579 34.024 37.211 34.024C37.571 34.024 37.907 34.088 38.219 34.216C38.531 34.344 38.799 34.5 39.023 34.684L38.543 35.308C38.343 35.156 38.135 35.032 37.919 34.936C37.703 34.84 37.467 34.792 37.211 34.792C36.843 34.792 36.571 34.876 36.395 35.044C36.227 35.212 36.143 35.408 36.143 35.632C36.143 35.816 36.203 35.968 36.323 36.088C36.443 36.2 36.599 36.3 36.791 36.388C36.983 36.468 37.187 36.552 37.403 36.64C37.683 36.744 37.959 36.864 38.231 37C38.503 37.128 38.727 37.304 38.903 37.528C39.087 37.744 39.179 38.036 39.179 38.404C39.179 38.716 39.095 39.004 38.927 39.268C38.767 39.532 38.527 39.744 38.207 39.904C37.895 40.064 37.507 40.144 37.043 40.144Z" />
	<path d="M30.75 17.5C30.75 17.91 30.41 18.25 30 18.25H23V18.5C23 20 22.1 20.5 21 20.5H15C13.9 20.5 13 20 13 18.5V18.25H10C9.59 18.25 9.25 17.91 9.25 17.5C9.25 17.09 9.59 16.75 10 16.75H13V16.5C13 15 13.9 14.5 15 14.5H21C22.1 14.5 23 15 23 16.5V16.75H30C30.41 16.75 30.75 17.09 30.75 17.5Z" />
	<path d="M30.75 6.5C30.75 6.91 30.41 7.25 30 7.25H27V7.5C27 9 26.1 9.5 25 9.5H19C17.9 9.5 17 9 17 7.5V7.25H10C9.59 7.25 9.25 6.91 9.25 6.5C9.25 6.09 9.59 5.75 10 5.75H17V5.5C17 4 17.9 3.5 19 3.5H25C26.1 3.5 27 4 27 5.5V5.75H30C30.41 5.75 30.75 6.09 30.75 6.5Z" />
</svg>
