<svg width="30" height="43" viewBox="0 0 30 43" xmlns="http://www.w3.org/2000/svg">
	<path d="M1.32281 40V32.128H2.31881V35.428H5.97881V32.128H6.98681V40H5.97881V36.292H2.31881V40H1.32281ZM11.0829 40.144C10.6109 40.144 10.1669 40.024 9.75094 39.784C9.34294 39.544 9.01094 39.196 8.75494 38.74C8.50694 38.284 8.38294 37.736 8.38294 37.096C8.38294 36.44 8.50694 35.884 8.75494 35.428C9.01094 34.972 9.34294 34.624 9.75094 34.384C10.1669 34.144 10.6109 34.024 11.0829 34.024C11.5629 34.024 12.0069 34.144 12.4149 34.384C12.8229 34.624 13.1509 34.972 13.3989 35.428C13.6549 35.884 13.7829 36.44 13.7829 37.096C13.7829 37.736 13.6549 38.284 13.3989 38.74C13.1509 39.196 12.8229 39.544 12.4149 39.784C12.0069 40.024 11.5629 40.144 11.0829 40.144ZM11.0829 39.328C11.5869 39.328 11.9909 39.124 12.2949 38.716C12.6069 38.3 12.7629 37.76 12.7629 37.096C12.7629 36.424 12.6069 35.88 12.2949 35.464C11.9909 35.048 11.5869 34.84 11.0829 34.84C10.5869 34.84 10.1829 35.048 9.87094 35.464C9.55894 35.88 9.40294 36.424 9.40294 37.096C9.40294 37.76 9.55894 38.3 9.87094 38.716C10.1829 39.124 10.5869 39.328 11.0829 39.328ZM15.0788 40V34.168H15.8948L15.9788 35.008H16.0148C16.2708 34.728 16.5508 34.496 16.8548 34.312C17.1588 34.12 17.4828 34.024 17.8268 34.024C18.2748 34.024 18.6228 34.124 18.8708 34.324C19.1268 34.516 19.3148 34.788 19.4348 35.14C19.7388 34.812 20.0468 34.544 20.3588 34.336C20.6708 34.128 21.0028 34.024 21.3548 34.024C21.9548 34.024 22.3988 34.22 22.6868 34.612C22.9828 34.996 23.1308 35.56 23.1308 36.304V40H22.1468V36.436C22.1468 35.892 22.0588 35.496 21.8828 35.248C21.7068 35 21.4348 34.876 21.0668 34.876C20.6348 34.876 20.1468 35.176 19.6028 35.776V40H18.6188V36.436C18.6188 35.892 18.5308 35.496 18.3548 35.248C18.1788 35 17.9028 34.876 17.5268 34.876C17.0948 34.876 16.6068 35.176 16.0628 35.776V40H15.0788ZM27.1521 40.144C26.6321 40.144 26.1601 40.024 25.7361 39.784C25.3121 39.536 24.9761 39.184 24.7281 38.728C24.4801 38.272 24.3561 37.728 24.3561 37.096C24.3561 36.456 24.4801 35.908 24.7281 35.452C24.9841 34.996 25.3121 34.644 25.7121 34.396C26.1121 34.148 26.5321 34.024 26.9721 34.024C27.7161 34.024 28.2881 34.272 28.6881 34.768C29.0961 35.264 29.3001 35.928 29.3001 36.76C29.3001 36.864 29.2961 36.968 29.2881 37.072C29.2881 37.168 29.2801 37.252 29.2641 37.324H25.3281C25.3681 37.94 25.5601 38.432 25.9041 38.8C26.2561 39.168 26.7121 39.352 27.2721 39.352C27.5521 39.352 27.8081 39.312 28.0401 39.232C28.2801 39.144 28.5081 39.032 28.7241 38.896L29.0721 39.544C28.8241 39.704 28.5401 39.844 28.2201 39.964C27.9081 40.084 27.5521 40.144 27.1521 40.144ZM25.3161 36.616H28.4361C28.4361 36.024 28.3081 35.576 28.0521 35.272C27.8041 34.96 27.4521 34.804 26.9961 34.804C26.5881 34.804 26.2201 34.964 25.8921 35.284C25.5721 35.596 25.3801 36.04 25.3161 36.616Z" />
	<path d="M13 15.5C12.59 15.5 12.25 15.84 12.25 16.25V17.75C12.25 18.16 12.59 18.5 13 18.5C13.41 18.5 13.75 18.16 13.75 17.75V16.25C13.75 15.84 13.41 15.5 13 15.5Z" />
	<path d="M25 21.25H24V9.97997C24 9.35997 23.72 8.77997 23.23 8.39997L16.23 2.95997C15.51 2.38997 14.49 2.38997 13.77 2.95997L6.77 8.39997C6.28 8.77997 6 9.35997 6 9.96997L5.95 21.25H5C4.59 21.25 4.25 21.58 4.25 22C4.25 22.41 4.59 22.75 5 22.75H25C25.41 22.75 25.75 22.41 25.75 22C25.75 21.58 25.41 21.25 25 21.25ZM13.5 6.74997H16.5C16.91 6.74997 17.25 7.08997 17.25 7.49997C17.25 7.90997 16.91 8.24997 16.5 8.24997H13.5C13.09 8.24997 12.75 7.90997 12.75 7.49997C12.75 7.08997 13.09 6.74997 13.5 6.74997ZM20 21.25H10V12.5C10 11.67 10.67 11 11.5 11H18.5C19.33 11 20 11.67 20 12.5V21.25Z" />
</svg>
