<svg width="46" height="43" viewBox="0 0 46 43" xmlns="http://www.w3.org/2000/svg">
	<path d="M21 15.5C20.59 15.5 20.25 15.84 20.25 16.25V17.75C20.25 18.16 20.59 18.5 21 18.5C21.41 18.5 21.75 18.16 21.75 17.75V16.25C21.75 15.84 21.41 15.5 21 15.5Z" />
	<path d="M33 21.25H32V9.97997C32 9.35997 31.72 8.77997 31.23 8.39997L24.23 2.95997C23.51 2.38997 22.49 2.38997 21.77 2.95997L14.77 8.39997C14.28 8.77997 14 9.35997 14 9.96997L13.95 21.25H13C12.59 21.25 12.25 21.58 12.25 22C12.25 22.41 12.59 22.75 13 22.75H33C33.41 22.75 33.75 22.41 33.75 22C33.75 21.58 33.41 21.25 33 21.25ZM21.5 6.74997H24.5C24.91 6.74997 25.25 7.08997 25.25 7.49997C25.25 7.90997 24.91 8.24997 24.5 8.24997H21.5C21.09 8.24997 20.75 7.90997 20.75 7.49997C20.75 7.08997 21.09 6.74997 21.5 6.74997ZM28 21.25H18V12.5C18 11.67 18.67 11 19.5 11H26.5C27.33 11 28 11.67 28 12.5V21.25Z" />
	<path d="M9.51812 40V32.128H10.5141V35.428H14.1741V32.128H15.1821V40H14.1741V36.292H10.5141V40H9.51812ZM20.0103 40.144C19.3542 40.144 18.7702 39.976 18.2582 39.64C17.7542 39.304 17.3582 38.828 17.0702 38.212C16.7902 37.596 16.6502 36.868 16.6502 36.028C16.6502 35.188 16.7902 34.468 17.0702 33.868C17.3582 33.26 17.7542 32.796 18.2582 32.476C18.7702 32.148 19.3542 31.984 20.0103 31.984C20.6743 31.984 21.2583 32.148 21.7623 32.476C22.2663 32.796 22.6623 33.26 22.9503 33.868C23.2383 34.468 23.3823 35.188 23.3823 36.028C23.3823 36.868 23.2383 37.596 22.9503 38.212C22.6623 38.828 22.2663 39.304 21.7623 39.64C21.2583 39.976 20.6743 40.144 20.0103 40.144ZM20.0103 39.268C20.4823 39.268 20.8903 39.136 21.2343 38.872C21.5863 38.6 21.8583 38.224 22.0503 37.744C22.2423 37.256 22.3383 36.684 22.3383 36.028C22.3383 35.052 22.1263 34.28 21.7023 33.712C21.2783 33.144 20.7143 32.86 20.0103 32.86C19.3063 32.86 18.7423 33.144 18.3183 33.712C17.8943 34.28 17.6823 35.052 17.6823 36.028C17.6823 36.684 17.7782 37.256 17.9702 37.744C18.1622 38.224 18.4342 38.6 18.7862 38.872C19.1383 39.136 19.5463 39.268 20.0103 39.268ZM24.835 40V32.128H26.035L27.547 36.328C27.643 36.6 27.735 36.876 27.823 37.156C27.919 37.428 28.015 37.7 28.111 37.972H28.159C28.255 37.7 28.343 37.428 28.423 37.156C28.511 36.876 28.603 36.6 28.699 36.328L30.187 32.128H31.399V40H30.463V35.668C30.463 35.316 30.479 34.928 30.511 34.504C30.543 34.072 30.571 33.684 30.595 33.34H30.547L29.923 35.128L28.435 39.208H27.775L26.287 35.128L25.663 33.34H25.615C25.639 33.684 25.663 34.072 25.687 34.504C25.719 34.928 25.735 35.316 25.735 35.668V40H24.835ZM33.3137 40V32.128H37.8497V32.968H34.3097V35.44H37.2977V36.292H34.3097V39.148H37.9697V40H33.3137Z" />
</svg>
