<svg width="34" height="43" viewBox="0 0 34 43" xmlns="http://www.w3.org/2000/svg">
	<path d="M1.09883 40V32.128H2.09483V39.148H5.53883V40H1.09883ZM6.59877 40V34.168H7.58277V40H6.59877ZM7.10277 32.968C6.91077 32.968 6.75077 32.912 6.62277 32.8C6.50277 32.68 6.44277 32.52 6.44277 32.32C6.44277 32.128 6.50277 31.972 6.62277 31.852C6.75077 31.732 6.91077 31.672 7.10277 31.672C7.29477 31.672 7.45077 31.732 7.57077 31.852C7.69877 31.972 7.76277 32.128 7.76277 32.32C7.76277 32.52 7.69877 32.68 7.57077 32.8C7.45077 32.912 7.29477 32.968 7.10277 32.968ZM11.8919 40.144C11.6199 40.144 11.3359 40.08 11.0399 39.952C10.7519 39.816 10.4799 39.632 10.2239 39.4H10.1879L10.1039 40H9.31189V31.456H10.2959V33.784L10.2719 34.84C10.5359 34.608 10.8239 34.416 11.1359 34.264C11.4559 34.104 11.7759 34.024 12.0959 34.024C12.8559 34.024 13.4319 34.292 13.8239 34.828C14.2159 35.364 14.4119 36.084 14.4119 36.988C14.4119 37.652 14.2919 38.22 14.0519 38.692C13.8199 39.164 13.5119 39.524 13.1279 39.772C12.7519 40.02 12.3399 40.144 11.8919 40.144ZM11.7239 39.316C12.2039 39.316 12.5999 39.112 12.9119 38.704C13.2319 38.288 13.3919 37.72 13.3919 37C13.3919 36.36 13.2719 35.844 13.0319 35.452C12.7999 35.052 12.4079 34.852 11.8559 34.852C11.6079 34.852 11.3559 34.92 11.0999 35.056C10.8439 35.192 10.5759 35.388 10.2959 35.644V38.704C10.5519 38.928 10.8039 39.088 11.0519 39.184C11.3079 39.272 11.5319 39.316 11.7239 39.316ZM15.7047 40V34.168H16.5207L16.6047 35.224H16.6407C16.8407 34.856 17.0847 34.564 17.3727 34.348C17.6607 34.132 17.9687 34.024 18.2967 34.024C18.5287 34.024 18.7367 34.064 18.9207 34.144L18.7287 35.008C18.6327 34.976 18.5447 34.952 18.4647 34.936C18.3847 34.92 18.2847 34.912 18.1647 34.912C17.9167 34.912 17.6567 35.012 17.3847 35.212C17.1207 35.412 16.8887 35.76 16.6887 36.256V40H15.7047ZM20.6759 40.144C20.1879 40.144 19.7799 40 19.4519 39.712C19.1319 39.416 18.9719 39.008 18.9719 38.488C18.9719 37.848 19.2559 37.36 19.8239 37.024C20.3999 36.68 21.3079 36.44 22.5479 36.304C22.5479 36.056 22.5119 35.82 22.4399 35.596C22.3759 35.372 22.2559 35.192 22.0799 35.056C21.9119 34.912 21.6679 34.84 21.3479 34.84C21.0119 34.84 20.6959 34.904 20.3999 35.032C20.1039 35.16 19.8399 35.304 19.6079 35.464L19.2239 34.78C19.4959 34.604 19.8279 34.436 20.2199 34.276C20.6199 34.108 21.0519 34.024 21.5159 34.024C22.2279 34.024 22.7439 34.244 23.0639 34.684C23.3839 35.116 23.5439 35.696 23.5439 36.424V40H22.7279L22.6439 39.304H22.6079C22.3359 39.528 22.0359 39.724 21.7079 39.892C21.3879 40.06 21.0439 40.144 20.6759 40.144ZM20.9639 39.352C21.2439 39.352 21.5079 39.284 21.7559 39.148C22.0039 39.012 22.2679 38.82 22.5479 38.572V36.952C21.5799 37.072 20.8999 37.252 20.5079 37.492C20.1239 37.732 19.9319 38.04 19.9319 38.416C19.9319 38.744 20.0319 38.984 20.2319 39.136C20.4319 39.28 20.6759 39.352 20.9639 39.352ZM25.1388 40V34.168H25.9548L26.0388 35.224H26.0748C26.2748 34.856 26.5188 34.564 26.8068 34.348C27.0948 34.132 27.4028 34.024 27.7308 34.024C27.9628 34.024 28.1708 34.064 28.3548 34.144L28.1628 35.008C28.0668 34.976 27.9788 34.952 27.8988 34.936C27.8188 34.92 27.7188 34.912 27.5988 34.912C27.3508 34.912 27.0908 35.012 26.8188 35.212C26.5548 35.412 26.3228 35.76 26.1228 36.256V40H25.1388ZM29.4596 42.508C29.3316 42.508 29.2076 42.496 29.0876 42.472C28.9756 42.448 28.8716 42.42 28.7756 42.388L28.9676 41.608C29.0316 41.624 29.1036 41.64 29.1836 41.656C29.2636 41.68 29.3396 41.692 29.4116 41.692C29.7396 41.692 30.0116 41.572 30.2276 41.332C30.4436 41.1 30.6116 40.804 30.7316 40.444L30.8636 40.012L28.5236 34.168H29.5436L30.7316 37.396C30.8196 37.644 30.9116 37.912 31.0076 38.2C31.1116 38.488 31.2076 38.768 31.2956 39.04H31.3436C31.4316 38.776 31.5156 38.5 31.5956 38.212C31.6756 37.924 31.7556 37.652 31.8356 37.396L32.8796 34.168H33.8396L31.6436 40.48C31.5076 40.864 31.3436 41.208 31.1516 41.512C30.9676 41.816 30.7356 42.056 30.4556 42.232C30.1836 42.416 29.8516 42.508 29.4596 42.508Z" />
	<path d="M27 4.85005V16.7401C27 17.7101 26.21 18.6001 25.24 18.7201L24.93 18.7601C23.29 18.9801 20.98 19.6601 19.12 20.4401C18.47 20.7101 17.75 20.2201 17.75 19.5101V5.60005C17.75 5.23005 17.96 4.89005 18.29 4.71005C20.12 3.72005 22.89 2.84005 24.77 2.68005H24.83C26.03 2.68005 27 3.65005 27 4.85005Z" />
	<path d="M15.71 4.71005C13.88 3.72005 11.11 2.84005 9.22999 2.68005H9.15999C7.95999 2.68005 6.98999 3.65005 6.98999 4.85005V16.7401C6.98999 17.7101 7.77999 18.6001 8.74999 18.7201L9.05999 18.7601C10.7 18.9801 13.01 19.6601 14.87 20.4401C15.52 20.7101 16.24 20.2201 16.24 19.5101V5.60005C16.24 5.22005 16.04 4.89005 15.71 4.71005ZM9.99999 7.74005H12.25C12.66 7.74005 13 8.08005 13 8.49005C13 8.91005 12.66 9.24005 12.25 9.24005H9.99999C9.58999 9.24005 9.24999 8.91005 9.24999 8.49005C9.24999 8.08005 9.58999 7.74005 9.99999 7.74005ZM13 12.2401H9.99999C9.58999 12.2401 9.24999 11.9101 9.24999 11.4901C9.24999 11.0801 9.58999 10.7401 9.99999 10.7401H13C13.41 10.7401 13.75 11.0801 13.75 11.4901C13.75 11.9101 13.41 12.2401 13 12.2401Z" />
</svg>
