<svg width="46" height="43" viewBox="0 0 46 43" xmlns="http://www.w3.org/2000/svg">
	<path d="M4.35273 40V32.128H5.34873V39.148H8.79273V40H4.35273ZM9.94867 40V32.128H10.9447V40H9.94867ZM12.861 40V32.128H15.201C15.737 32.128 16.205 32.192 16.605 32.32C17.013 32.448 17.329 32.652 17.553 32.932C17.785 33.212 17.901 33.584 17.901 34.048C17.901 34.44 17.801 34.796 17.601 35.116C17.409 35.428 17.125 35.644 16.749 35.764V35.812C17.221 35.9 17.605 36.1 17.901 36.412C18.205 36.724 18.357 37.152 18.357 37.696C18.357 38.208 18.229 38.636 17.973 38.98C17.725 39.324 17.377 39.58 16.929 39.748C16.481 39.916 15.961 40 15.369 40H12.861ZM13.857 35.476H15.021C15.693 35.476 16.177 35.36 16.473 35.128C16.769 34.896 16.917 34.58 16.917 34.18C16.917 33.724 16.761 33.4 16.449 33.208C16.145 33.016 15.685 32.92 15.069 32.92H13.857V35.476ZM13.857 39.208H15.225C15.905 39.208 16.433 39.084 16.809 38.836C17.185 38.58 17.373 38.188 17.373 37.66C17.373 37.172 17.185 36.816 16.809 36.592C16.441 36.36 15.913 36.244 15.225 36.244H13.857V39.208ZM19.6757 40V32.128H22.1357C22.6717 32.128 23.1477 32.2 23.5637 32.344C23.9797 32.48 24.3037 32.712 24.5357 33.04C24.7757 33.36 24.8957 33.792 24.8957 34.336C24.8957 34.944 24.7357 35.436 24.4157 35.812C24.0957 36.18 23.6637 36.432 23.1197 36.568L25.1237 40H23.9957L22.0997 36.676H20.6717V40H19.6757ZM20.6717 35.86H21.9917C22.6077 35.86 23.0797 35.736 23.4077 35.488C23.7357 35.232 23.8997 34.848 23.8997 34.336C23.8997 33.816 23.7357 33.452 23.4077 33.244C23.0797 33.036 22.6077 32.932 21.9917 32.932H20.6717V35.86ZM27.5769 35.596L27.2049 36.796H29.5689L29.1969 35.596C29.0529 35.156 28.9169 34.72 28.7889 34.288C28.6609 33.848 28.5329 33.4 28.4049 32.944H28.3569C28.2369 33.4 28.1129 33.848 27.9849 34.288C27.8569 34.72 27.7209 35.156 27.5769 35.596ZM25.1769 40L27.8409 32.128H28.9689L31.6329 40H30.5649L29.8209 37.6H26.9529L26.1969 40H25.1769ZM32.5082 40V32.128H34.9682C35.5042 32.128 35.9802 32.2 36.3962 32.344C36.8122 32.48 37.1362 32.712 37.3682 33.04C37.6082 33.36 37.7282 33.792 37.7282 34.336C37.7282 34.944 37.5682 35.436 37.2482 35.812C36.9282 36.18 36.4962 36.432 35.9522 36.568L37.9562 40H36.8282L34.9322 36.676H33.5042V40H32.5082ZM33.5042 35.86H34.8242C35.4402 35.86 35.9122 35.736 36.2402 35.488C36.5682 35.232 36.7322 34.848 36.7322 34.336C36.7322 33.816 36.5682 33.452 36.2402 33.244C35.9122 33.036 35.4402 32.932 34.8242 32.932H33.5042V35.86ZM40.3722 40V36.952L38.0082 32.128H39.0762L40.0962 34.348C40.2242 34.636 40.3482 34.92 40.4682 35.2C40.5962 35.48 40.7242 35.768 40.8522 36.064H40.9002C41.0362 35.768 41.1722 35.48 41.3082 35.2C41.4442 34.92 41.5722 34.636 41.6922 34.348L42.7002 32.128H43.7442L41.3802 36.952V40H40.3722Z" />
	<path d="M33 4.85005V16.7401C33 17.7101 32.21 18.6001 31.24 18.7201L30.93 18.7601C29.29 18.9801 26.98 19.6601 25.12 20.4401C24.47 20.7101 23.75 20.2201 23.75 19.5101V5.60005C23.75 5.23005 23.96 4.89005 24.29 4.71005C26.12 3.72005 28.89 2.84005 30.77 2.68005H30.83C32.03 2.68005 33 3.65005 33 4.85005Z" />
	<path d="M21.71 4.71005C19.88 3.72005 17.11 2.84005 15.23 2.68005H15.16C13.96 2.68005 12.99 3.65005 12.99 4.85005V16.7401C12.99 17.7101 13.78 18.6001 14.75 18.7201L15.06 18.7601C16.7 18.9801 19.01 19.6601 20.87 20.4401C21.52 20.7101 22.24 20.2201 22.24 19.5101V5.60005C22.24 5.22005 22.04 4.89005 21.71 4.71005ZM16 7.74005H18.25C18.66 7.74005 19 8.08005 19 8.49005C19 8.91005 18.66 9.24005 18.25 9.24005H16C15.59 9.24005 15.25 8.91005 15.25 8.49005C15.25 8.08005 15.59 7.74005 16 7.74005ZM19 12.2401H16C15.59 12.2401 15.25 11.9101 15.25 11.4901C15.25 11.0801 15.59 10.7401 16 10.7401H19C19.41 10.7401 19.75 11.0801 19.75 11.4901C19.75 11.9101 19.41 12.2401 19 12.2401Z" />
</svg>
