<svg width="36" height="43" viewBox="0 0 36 43" xmlns="http://www.w3.org/2000/svg">
	<path d="M4.22991 40.144C3.69391 40.144 3.20991 40.036 2.77791 39.82C2.35391 39.604 2.01791 39.248 1.76991 38.752C1.52191 38.256 1.39791 37.588 1.39791 36.748V32.128H2.39391V36.772C2.39391 37.404 2.47391 37.904 2.63391 38.272C2.80191 38.632 3.02191 38.888 3.29391 39.04C3.57391 39.192 3.88591 39.268 4.22991 39.268C4.58191 39.268 4.89791 39.192 5.17791 39.04C5.45791 38.888 5.67791 38.632 5.83791 38.272C6.00591 37.904 6.08991 37.404 6.08991 36.772V32.128H7.04991V36.748C7.04991 37.588 6.92591 38.256 6.67791 38.752C6.42991 39.248 6.09391 39.604 5.66991 39.82C5.24591 40.036 4.76591 40.144 4.22991 40.144ZM8.83228 42.46V34.168H9.64828L9.73228 34.84H9.76828C10.0323 34.616 10.3203 34.424 10.6323 34.264C10.9523 34.104 11.2843 34.024 11.6283 34.024C12.3803 34.024 12.9523 34.296 13.3443 34.84C13.7363 35.376 13.9323 36.096 13.9323 37C13.9323 37.656 13.8123 38.22 13.5723 38.692C13.3403 39.164 13.0323 39.524 12.6483 39.772C12.2723 40.02 11.8603 40.144 11.4123 40.144C11.1403 40.144 10.8683 40.084 10.5963 39.964C10.3323 39.844 10.0643 39.68 9.79228 39.472L9.81628 40.492V42.46H8.83228ZM11.2443 39.316C11.7243 39.316 12.1203 39.112 12.4323 38.704C12.7523 38.288 12.9123 37.72 12.9123 37C12.9123 36.36 12.7923 35.844 12.5523 35.452C12.3203 35.052 11.9283 34.852 11.3763 34.852C11.1283 34.852 10.8763 34.92 10.6203 35.056C10.3723 35.192 10.1043 35.388 9.81628 35.644V38.704C10.0803 38.928 10.3363 39.088 10.5843 39.184C10.8323 39.272 11.0523 39.316 11.2443 39.316ZM16.2925 40.144C15.9245 40.144 15.6565 40.032 15.4885 39.808C15.3285 39.576 15.2485 39.248 15.2485 38.824V31.456H16.2325V38.896C16.2325 39.048 16.2605 39.16 16.3165 39.232C16.3725 39.296 16.4365 39.328 16.5085 39.328C16.5405 39.328 16.5685 39.328 16.5925 39.328C16.6245 39.32 16.6685 39.312 16.7245 39.304L16.8565 40.048C16.7925 40.08 16.7165 40.104 16.6285 40.12C16.5405 40.136 16.4285 40.144 16.2925 40.144ZM20.3351 40.144C19.8631 40.144 19.4191 40.024 19.0031 39.784C18.5951 39.544 18.2631 39.196 18.0071 38.74C17.7591 38.284 17.6351 37.736 17.6351 37.096C17.6351 36.44 17.7591 35.884 18.0071 35.428C18.2631 34.972 18.5951 34.624 19.0031 34.384C19.4191 34.144 19.8631 34.024 20.3351 34.024C20.8151 34.024 21.2591 34.144 21.6671 34.384C22.0751 34.624 22.4031 34.972 22.6511 35.428C22.9071 35.884 23.0351 36.44 23.0351 37.096C23.0351 37.736 22.9071 38.284 22.6511 38.74C22.4031 39.196 22.0751 39.544 21.6671 39.784C21.2591 40.024 20.8151 40.144 20.3351 40.144ZM20.3351 39.328C20.8391 39.328 21.2431 39.124 21.5471 38.716C21.8591 38.3 22.0151 37.76 22.0151 37.096C22.0151 36.424 21.8591 35.88 21.5471 35.464C21.2431 35.048 20.8391 34.84 20.3351 34.84C19.8391 34.84 19.4351 35.048 19.1231 35.464C18.8111 35.88 18.6551 36.424 18.6551 37.096C18.6551 37.76 18.8111 38.3 19.1231 38.716C19.4351 39.124 19.8391 39.328 20.3351 39.328ZM25.511 40.144C25.023 40.144 24.615 40 24.287 39.712C23.967 39.416 23.807 39.008 23.807 38.488C23.807 37.848 24.091 37.36 24.659 37.024C25.235 36.68 26.143 36.44 27.383 36.304C27.383 36.056 27.347 35.82 27.275 35.596C27.211 35.372 27.091 35.192 26.915 35.056C26.747 34.912 26.503 34.84 26.183 34.84C25.847 34.84 25.531 34.904 25.235 35.032C24.939 35.16 24.675 35.304 24.443 35.464L24.059 34.78C24.331 34.604 24.663 34.436 25.055 34.276C25.455 34.108 25.887 34.024 26.351 34.024C27.063 34.024 27.579 34.244 27.899 34.684C28.219 35.116 28.379 35.696 28.379 36.424V40H27.563L27.479 39.304H27.443C27.171 39.528 26.871 39.724 26.543 39.892C26.223 40.06 25.879 40.144 25.511 40.144ZM25.799 39.352C26.079 39.352 26.343 39.284 26.591 39.148C26.839 39.012 27.103 38.82 27.383 38.572V36.952C26.415 37.072 25.735 37.252 25.343 37.492C24.959 37.732 24.767 38.04 24.767 38.416C24.767 38.744 24.867 38.984 25.067 39.136C25.267 39.28 25.511 39.352 25.799 39.352ZM31.9658 40.144C31.2378 40.144 30.6538 39.88 30.2138 39.352C29.7738 38.816 29.5538 38.064 29.5538 37.096C29.5538 36.464 29.6698 35.92 29.9018 35.464C30.1418 35 30.4538 34.644 30.8378 34.396C31.2298 34.148 31.6458 34.024 32.0858 34.024C32.4218 34.024 32.7138 34.084 32.9618 34.204C33.2098 34.324 33.4618 34.488 33.7178 34.696L33.6698 33.7V31.456H34.6658V40H33.8498L33.7658 39.316H33.7298C33.5058 39.54 33.2418 39.736 32.9378 39.904C32.6338 40.064 32.3098 40.144 31.9658 40.144ZM32.1818 39.316C32.6938 39.316 33.1898 39.048 33.6698 38.512V35.464C33.4218 35.24 33.1818 35.084 32.9498 34.996C32.7258 34.9 32.4938 34.852 32.2538 34.852C31.9418 34.852 31.6578 34.948 31.4018 35.14C31.1538 35.324 30.9538 35.584 30.8018 35.92C30.6498 36.248 30.5738 36.636 30.5738 37.084C30.5738 37.78 30.7138 38.328 30.9938 38.728C31.2738 39.12 31.6698 39.316 32.1818 39.316Z" />
	<path d="M26.5 10.19H23.61C21.24 10.19 19.31 8.26 19.31 5.89V3C19.31 2.45 18.86 2 18.31 2H14.07C10.99 2 8.5 4 8.5 7.57V16.43C8.5 20 10.99 22 14.07 22H21.93C25.01 22 27.5 20 27.5 16.43V11.19C27.5 10.64 27.05 10.19 26.5 10.19ZM17.53 13.53C17.38 13.68 17.19 13.75 17 13.75C16.81 13.75 16.62 13.68 16.47 13.53L15.75 12.81V17C15.75 17.41 15.41 17.75 15 17.75C14.59 17.75 14.25 17.41 14.25 17V12.81L13.53 13.53C13.24 13.82 12.76 13.82 12.47 13.53C12.18 13.24 12.18 12.76 12.47 12.47L14.47 10.47C14.54 10.41 14.61 10.36 14.69 10.32C14.71 10.31 14.74 10.3 14.76 10.29C14.82 10.27 14.88 10.26 14.95 10.25C14.98 10.25 15 10.25 15.03 10.25C15.11 10.25 15.19 10.27 15.27 10.3C15.28 10.3 15.28 10.3 15.29 10.3C15.37 10.33 15.45 10.39 15.51 10.45C15.52 10.46 15.53 10.46 15.53 10.47L17.53 12.47C17.82 12.76 17.82 13.24 17.53 13.53Z" />
	<path d="M23.4301 8.80999C24.3801 8.81999 25.7001 8.81999 26.8301 8.81999C27.4001 8.81999 27.7001 8.14999 27.3001 7.74999C25.8601 6.29999 23.2801 3.68999 21.8001 2.20999C21.3901 1.79999 20.6801 2.07999 20.6801 2.64999V6.13999C20.6801 7.59999 21.9201 8.80999 23.4301 8.80999Z" />
</svg>
