<svg width="60" height="60" viewBox="0 0 60 60" xmlns="http://www.w3.org/2000/svg">
	<path d="M30 0C24.0666 0 18.2664 1.75947 13.3329 5.05591C8.39943 8.35235 4.55426 13.0377 2.28363 18.5195C0.0129985 24.0013 -0.581102 30.0333 0.576455 35.8527C1.73401 41.6721 4.59123 47.0176 8.78681 51.2132C12.9824 55.4088 18.3279 58.266 24.1473 59.4236C29.9667 60.5811 35.9987 59.987 41.4805 57.7164C46.9623 55.4458 51.6477 51.6006 54.9441 46.6671C58.2405 41.7336 60 35.9334 60 30C60 22.0435 56.8393 14.4129 51.2132 8.7868C45.5871 3.16071 37.9565 0 30 0ZM40.59 30.09C40.3815 30.2994 40.1337 30.4655 39.8609 30.5788C39.588 30.6922 39.2955 30.7505 39 30.7505C38.7046 30.7505 38.412 30.6922 38.1391 30.5788C37.8663 30.4655 37.6185 30.2994 37.41 30.09L32.25 24.93V40.5C32.25 41.0967 32.013 41.669 31.591 42.091C31.169 42.5129 30.5968 42.75 30 42.75C29.4033 42.75 28.831 42.5129 28.409 42.091C27.9871 41.669 27.75 41.0967 27.75 40.5V24.93L22.59 30.09C22.384 30.3111 22.1356 30.4884 21.8596 30.6113C21.5836 30.7343 21.2857 30.8004 20.9836 30.8058C20.6815 30.8111 20.3814 30.7555 20.1012 30.6424C19.8211 30.5292 19.5666 30.3608 19.3529 30.1471C19.1392 29.9335 18.9708 29.679 18.8576 29.3988C18.7445 29.1186 18.6889 28.8185 18.6942 28.5164C18.6996 28.2143 18.7657 27.9164 18.8887 27.6404C19.0116 27.3644 19.189 27.116 19.41 26.91L28.41 17.91C28.8334 17.4916 29.4047 17.2569 30 17.2569C30.5953 17.2569 31.1666 17.4916 31.59 17.91L40.59 26.91C41.0085 27.3334 41.2431 27.9047 41.2431 28.5C41.2431 29.0953 41.0085 29.6666 40.59 30.09Z" />
</svg>
