<svg width="46" height="43" viewBox="0 0 46 43" xmlns="http://www.w3.org/2000/svg">
	<path d="M6.91102 40L4.39102 32.128H5.45902L6.71902 36.376C6.86302 36.84 6.98702 37.276 7.09102 37.684C7.20302 38.084 7.33502 38.516 7.48702 38.98H7.53502C7.67902 38.516 7.80702 38.084 7.91902 37.684C8.03102 37.276 8.15502 36.84 8.29102 36.376L9.55102 32.128H10.571L8.07502 40H6.91102ZM11.4068 40V32.128H12.4028V40H11.4068ZM14.3191 40V32.128H16.2871C17.5031 32.128 18.4271 32.468 19.0591 33.148C19.6911 33.82 20.0071 34.78 20.0071 36.028C20.0071 37.284 19.6911 38.26 19.0591 38.956C18.4351 39.652 17.5271 40 16.3351 40H14.3191ZM15.3151 39.184H16.2151C17.1351 39.184 17.8231 38.908 18.2791 38.356C18.7431 37.796 18.9751 37.02 18.9751 36.028C18.9751 35.036 18.7431 34.276 18.2791 33.748C17.8231 33.212 17.1351 32.944 16.2151 32.944H15.3151V39.184ZM21.462 40V32.128H25.998V32.968H22.458V35.44H25.446V36.292H22.458V39.148H26.118V40H21.462ZM30.4541 40.144C29.7981 40.144 29.2141 39.976 28.7021 39.64C28.1981 39.304 27.8021 38.828 27.5141 38.212C27.2341 37.596 27.0941 36.868 27.0941 36.028C27.0941 35.188 27.2341 34.468 27.5141 33.868C27.8021 33.26 28.1981 32.796 28.7021 32.476C29.2141 32.148 29.7981 31.984 30.4541 31.984C31.1181 31.984 31.7021 32.148 32.2061 32.476C32.7101 32.796 33.1061 33.26 33.3941 33.868C33.6821 34.468 33.8261 35.188 33.8261 36.028C33.8261 36.868 33.6821 37.596 33.3941 38.212C33.1061 38.828 32.7101 39.304 32.2061 39.64C31.7021 39.976 31.1181 40.144 30.4541 40.144ZM30.4541 39.268C30.9261 39.268 31.3341 39.136 31.6781 38.872C32.0301 38.6 32.3021 38.224 32.4941 37.744C32.6861 37.256 32.7821 36.684 32.7821 36.028C32.7821 35.052 32.5701 34.28 32.1461 33.712C31.7221 33.144 31.1581 32.86 30.4541 32.86C29.7501 32.86 29.1861 33.144 28.7621 33.712C28.3381 34.28 28.1261 35.052 28.1261 36.028C28.1261 36.684 28.2221 37.256 28.4141 37.744C28.6061 38.224 28.8781 38.6 29.2301 38.872C29.5821 39.136 29.9901 39.268 30.4541 39.268ZM37.4628 40.144C36.9108 40.144 36.3988 40.04 35.9268 39.832C35.4548 39.616 35.0468 39.332 34.7028 38.98L35.3028 38.284C35.5828 38.58 35.9108 38.82 36.2868 39.004C36.6708 39.18 37.0668 39.268 37.4748 39.268C37.9948 39.268 38.3988 39.152 38.6868 38.92C38.9748 38.68 39.1188 38.368 39.1188 37.984C39.1188 37.712 39.0588 37.496 38.9388 37.336C38.8268 37.176 38.6708 37.04 38.4708 36.928C38.2788 36.816 38.0588 36.704 37.8108 36.592L36.6828 36.1C36.4348 35.996 36.1868 35.86 35.9388 35.692C35.6988 35.524 35.4948 35.308 35.3268 35.044C35.1668 34.78 35.0868 34.456 35.0868 34.072C35.0868 33.672 35.1908 33.316 35.3988 33.004C35.6148 32.684 35.9108 32.436 36.2868 32.26C36.6628 32.076 37.0868 31.984 37.5588 31.984C38.0308 31.984 38.4668 32.076 38.8668 32.26C39.2668 32.436 39.6068 32.668 39.8868 32.956L39.3468 33.604C39.1068 33.372 38.8388 33.192 38.5428 33.064C38.2548 32.928 37.9268 32.86 37.5588 32.86C37.1188 32.86 36.7628 32.964 36.4908 33.172C36.2268 33.38 36.0948 33.66 36.0948 34.012C36.0948 34.26 36.1588 34.468 36.2868 34.636C36.4228 34.796 36.5908 34.928 36.7908 35.032C36.9908 35.136 37.1948 35.232 37.4028 35.32L38.5188 35.8C38.8228 35.928 39.0948 36.084 39.3348 36.268C39.5828 36.444 39.7788 36.664 39.9228 36.928C40.0668 37.184 40.1388 37.508 40.1388 37.9C40.1388 38.316 40.0308 38.696 39.8148 39.04C39.5988 39.376 39.2908 39.644 38.8908 39.844C38.4908 40.044 38.0148 40.144 37.4628 40.144Z" />
	<path d="M25.73 2H20.27V6.36H25.73V2Z" />
	<path d="M27.23 2V6.36H32.87C32.36 3.61 30.33 2.01 27.23 2Z" />
	<path d="M13 7.85999V16.19C13 19.83 15.17 22 18.81 22H27.19C30.83 22 33 19.83 33 16.19V7.85999H13ZM25.44 16.18L23.36 17.38C22.92 17.63 22.49 17.76 22.09 17.76C21.79 17.76 21.52 17.69 21.27 17.55C20.69 17.22 20.37 16.54 20.37 15.66V13.26C20.37 12.38 20.69 11.7 21.27 11.37C21.85 11.03 22.59 11.09 23.36 11.54L25.44 12.74C26.21 13.18 26.63 13.8 26.63 14.47C26.63 15.14 26.2 15.73 25.44 16.18Z" />
	<path d="M18.77 2C15.67 2.01 13.64 3.61 13.13 6.36H18.77V2Z" />
</svg>
