<svg width="33" height="43" viewBox="0 0 33 43" xmlns="http://www.w3.org/2000/svg">
	<path d="M2.98523 40L0.465235 32.128H1.53323L2.79323 36.376C2.93723 36.84 3.06123 37.276 3.16523 37.684C3.27723 38.084 3.40923 38.516 3.56123 38.98H3.60924C3.75323 38.516 3.88123 38.084 3.99323 37.684C4.10523 37.276 4.22924 36.84 4.36523 36.376L5.62523 32.128H6.64524L4.14923 40H2.98523ZM7.38502 40V34.168H8.36902V40H7.38502ZM7.88902 32.968C7.69702 32.968 7.53702 32.912 7.40902 32.8C7.28902 32.68 7.22902 32.52 7.22902 32.32C7.22902 32.128 7.28902 31.972 7.40902 31.852C7.53702 31.732 7.69702 31.672 7.88902 31.672C8.08102 31.672 8.23702 31.732 8.35702 31.852C8.48502 31.972 8.54902 32.128 8.54902 32.32C8.54902 32.52 8.48502 32.68 8.35702 32.8C8.23702 32.912 8.08102 32.968 7.88902 32.968ZM12.0901 40.144C11.3621 40.144 10.7781 39.88 10.3381 39.352C9.89814 38.816 9.67814 38.064 9.67814 37.096C9.67814 36.464 9.79414 35.92 10.0261 35.464C10.2661 35 10.5781 34.644 10.9621 34.396C11.3541 34.148 11.7701 34.024 12.2101 34.024C12.5461 34.024 12.8381 34.084 13.0861 34.204C13.3341 34.324 13.5861 34.488 13.8421 34.696L13.7941 33.7V31.456H14.7901V40H13.9741L13.8901 39.316H13.8541C13.6301 39.54 13.3661 39.736 13.0621 39.904C12.7581 40.064 12.4341 40.144 12.0901 40.144ZM12.3061 39.316C12.8181 39.316 13.3141 39.048 13.7941 38.512V35.464C13.5461 35.24 13.3061 35.084 13.0741 34.996C12.8501 34.9 12.6181 34.852 12.3781 34.852C12.0661 34.852 11.7821 34.948 11.5261 35.14C11.2781 35.324 11.0781 35.584 10.9261 35.92C10.7741 36.248 10.6981 36.636 10.6981 37.084C10.6981 37.78 10.8381 38.328 11.1181 38.728C11.3981 39.12 11.7941 39.316 12.3061 39.316ZM18.8784 40.144C18.3584 40.144 17.8864 40.024 17.4624 39.784C17.0384 39.536 16.7024 39.184 16.4544 38.728C16.2064 38.272 16.0824 37.728 16.0824 37.096C16.0824 36.456 16.2064 35.908 16.4544 35.452C16.7104 34.996 17.0384 34.644 17.4384 34.396C17.8384 34.148 18.2584 34.024 18.6984 34.024C19.4424 34.024 20.0144 34.272 20.4144 34.768C20.8224 35.264 21.0264 35.928 21.0264 36.76C21.0264 36.864 21.0224 36.968 21.0144 37.072C21.0144 37.168 21.0064 37.252 20.9904 37.324H17.0544C17.0944 37.94 17.2864 38.432 17.6304 38.8C17.9824 39.168 18.4384 39.352 18.9984 39.352C19.2784 39.352 19.5344 39.312 19.7664 39.232C20.0064 39.144 20.2344 39.032 20.4504 38.896L20.7984 39.544C20.5504 39.704 20.2664 39.844 19.9464 39.964C19.6344 40.084 19.2784 40.144 18.8784 40.144ZM17.0424 36.616H20.1624C20.1624 36.024 20.0344 35.576 19.7784 35.272C19.5304 34.96 19.1784 34.804 18.7224 34.804C18.3144 34.804 17.9464 34.964 17.6184 35.284C17.2984 35.596 17.1064 36.04 17.0424 36.616ZM24.4955 40.144C24.0235 40.144 23.5795 40.024 23.1635 39.784C22.7555 39.544 22.4235 39.196 22.1675 38.74C21.9195 38.284 21.7955 37.736 21.7955 37.096C21.7955 36.44 21.9195 35.884 22.1675 35.428C22.4235 34.972 22.7555 34.624 23.1635 34.384C23.5795 34.144 24.0235 34.024 24.4955 34.024C24.9755 34.024 25.4195 34.144 25.8275 34.384C26.2355 34.624 26.5635 34.972 26.8115 35.428C27.0675 35.884 27.1955 36.44 27.1955 37.096C27.1955 37.736 27.0675 38.284 26.8115 38.74C26.5635 39.196 26.2355 39.544 25.8275 39.784C25.4195 40.024 24.9755 40.144 24.4955 40.144ZM24.4955 39.328C24.9995 39.328 25.4035 39.124 25.7075 38.716C26.0195 38.3 26.1755 37.76 26.1755 37.096C26.1755 36.424 26.0195 35.88 25.7075 35.464C25.4035 35.048 24.9995 34.84 24.4955 34.84C23.9995 34.84 23.5955 35.048 23.2835 35.464C22.9715 35.88 22.8155 36.424 22.8155 37.096C22.8155 37.76 22.9715 38.3 23.2835 38.716C23.5955 39.124 23.9995 39.328 24.4955 39.328ZM30.0154 40.144C29.5994 40.144 29.2034 40.068 28.8274 39.916C28.4514 39.756 28.1234 39.564 27.8434 39.34L28.3354 38.68C28.5914 38.88 28.8554 39.048 29.1274 39.184C29.3994 39.312 29.7074 39.376 30.0514 39.376C30.4354 39.376 30.7234 39.288 30.9154 39.112C31.1074 38.928 31.2034 38.712 31.2034 38.464C31.2034 38.264 31.1354 38.096 30.9994 37.96C30.8714 37.824 30.7034 37.712 30.4954 37.624C30.2954 37.528 30.0874 37.44 29.8714 37.36C29.5994 37.256 29.3314 37.14 29.0674 37.012C28.8034 36.876 28.5874 36.704 28.4194 36.496C28.2514 36.28 28.1674 36.008 28.1674 35.68C28.1674 35.208 28.3434 34.816 28.6954 34.504C29.0554 34.184 29.5514 34.024 30.1834 34.024C30.5434 34.024 30.8794 34.088 31.1914 34.216C31.5034 34.344 31.7714 34.5 31.9954 34.684L31.5154 35.308C31.3154 35.156 31.1074 35.032 30.8914 34.936C30.6754 34.84 30.4394 34.792 30.1834 34.792C29.8154 34.792 29.5434 34.876 29.3674 35.044C29.1994 35.212 29.1154 35.408 29.1154 35.632C29.1154 35.816 29.1754 35.968 29.2954 36.088C29.4154 36.2 29.5714 36.3 29.7634 36.388C29.9554 36.468 30.1594 36.552 30.3754 36.64C30.6554 36.744 30.9314 36.864 31.2034 37C31.4754 37.128 31.6994 37.304 31.8754 37.528C32.0594 37.744 32.1514 38.036 32.1514 38.404C32.1514 38.716 32.0674 39.004 31.8994 39.268C31.7394 39.532 31.4994 39.744 31.1794 39.904C30.8674 40.064 30.4794 40.144 30.0154 40.144Z" />
	<path d="M19.73 2H14.27V6.36H19.73V2Z" />
	<path d="M21.23 2V6.36H26.87C26.36 3.61 24.33 2.01 21.23 2Z" />
	<path d="M7 7.85999V16.19C7 19.83 9.17 22 12.81 22H21.19C24.83 22 27 19.83 27 16.19V7.85999H7ZM19.44 16.18L17.36 17.38C16.92 17.63 16.49 17.76 16.09 17.76C15.79 17.76 15.52 17.69 15.27 17.55C14.69 17.22 14.37 16.54 14.37 15.66V13.26C14.37 12.38 14.69 11.7 15.27 11.37C15.85 11.03 16.59 11.09 17.36 11.54L19.44 12.74C20.21 13.18 20.63 13.8 20.63 14.47C20.63 15.14 20.2 15.73 19.44 16.18Z" />
	<path d="M12.77 2C9.67 2.01 7.64 3.61 7.13 6.36H12.77V2Z" />
</svg>
