<svg width="21" height="22" viewBox="0 0 21 22" fill="none" xmlns="http://www.w3.org/2000/svg">
<path d="M19.56 9.74006L18.2 8.16006C17.94 7.86006 17.73 7.30006 17.73 6.90006V5.20006C17.73 4.14006 16.86 3.27006 15.8 3.27006H14.1C13.71 3.27006 13.14 3.06006 12.84 2.80006L11.26 1.44006C10.57 0.850059 9.44 0.850059 8.74 1.44006L7.17 2.81006C6.87 3.06006 6.3 3.27006 5.91 3.27006H4.18C3.12 3.27006 2.25 4.14006 2.25 5.20006V6.91006C2.25 7.30006 2.04 7.86006 1.79 8.16006L0.440005 9.75006C-0.139995 10.4401 -0.139995 11.5601 0.440005 12.2501L1.79 13.8401C2.04 14.1401 2.25 14.7001 2.25 15.0901V16.8001C2.25 17.8601 3.12 18.7301 4.18 18.7301H5.91C6.3 18.7301 6.87 18.9401 7.17 19.2001L8.75 20.5601C9.44 21.1501 10.57 21.1501 11.27 20.5601L12.85 19.2001C13.15 18.9401 13.71 18.7301 14.11 18.7301H15.81C16.87 18.7301 17.74 17.8601 17.74 16.8001V15.1001C17.74 14.7101 17.95 14.1401 18.21 13.8401L19.57 12.2601C20.15 11.5701 20.15 10.4301 19.56 9.74006ZM14.16 9.11006L9.33 13.9401C9.19 14.0801 9 14.1601 8.8 14.1601C8.60001 14.1601 8.41001 14.0801 8.27001 13.9401L5.85 11.5201C5.56 11.2301 5.56 10.7501 5.85 10.4601C6.14 10.1701 6.62 10.1701 6.91 10.4601L8.8 12.3501L13.1 8.05006C13.39 7.76006 13.87 7.76006 14.16 8.05006C14.45 8.34006 14.45 8.82006 14.16 9.11006Z" />
</svg>

