<svg width="24" height="24" viewBox="0 0 24 24" xmlns="http://www.w3.org/2000/svg">
<path d="M13.63 15.72C13.63 16.0424 13.5344 16.3575 13.3553 16.6256C13.1762 16.8936 12.9216 17.1025 12.6238 17.2259C12.3259 17.3493 11.9982 17.3816 11.682 17.3187C11.3658 17.2558 11.0754 17.1005 10.8474 16.8726C10.6195 16.6446 10.4642 16.3542 10.4013 16.038C10.3384 15.7218 10.3707 15.3941 10.4941 15.0962C10.6174 14.7984 10.8264 14.5438 11.0944 14.3647C11.3625 14.1856 11.6776 14.09 12 14.09C12.4323 14.09 12.8469 14.2617 13.1526 14.5674C13.4583 14.8731 13.63 15.2877 13.63 15.72Z" />
<path d="M18.28 9.53V8.28C18.28 5.58 17.63 2 12 2C6.37 2 5.72 5.58 5.72 8.28V9.53C2.92 9.88 2 11.3 2 14.79V16.65C2 20.75 3.25 22 7.35 22H16.65C20.75 22 22 20.75 22 16.65V14.79C22 11.3 21.08 9.88 18.28 9.53ZM12 18.74C11.4027 18.74 10.8188 18.5629 10.3222 18.231C9.82554 17.8992 9.43846 17.4275 9.20988 16.8757C8.98131 16.3239 8.9215 15.7166 9.03803 15.1308C9.15456 14.545 9.44218 14.0069 9.86454 13.5845C10.2869 13.1622 10.825 12.8746 11.4108 12.758C11.9967 12.6415 12.6039 12.7013 13.1557 12.9299C13.7075 13.1585 14.1792 13.5455 14.511 14.0422C14.8429 14.5388 15.02 15.1227 15.02 15.72C15.0189 16.5206 14.7004 17.2882 14.1343 17.8543C13.5682 18.4204 12.8006 18.7389 12 18.74ZM7.35 9.44H7.12V8.28C7.12 5.35 7.95 3.4 12 3.4C16.05 3.4 16.88 5.35 16.88 8.28V9.45H7.35V9.44Z" />
</svg>
