<svg xmlns="http://www.w3.org/2000/svg" width="20" height="20" viewBox="0 0 20 20"><path d="M14.2625 7.65325H5.73748C5.66415 7.65325 5.59998 7.65325 5.52665 7.65325V6.58992C5.52665 3.90408 6.28748 2.11659 9.99998 2.11659C13.9691 2.11659 14.4733 4.05075 14.4733 5.73742C14.4733 6.09492 14.7575 6.37909 15.115 6.37909C15.4725 6.37909 15.7566 6.09492 15.7566 5.73742C15.7566 2.48325 13.8225 0.833252 9.99998 0.833252C4.83915 0.833252 4.24331 4.11492 4.24331 6.58992V7.73575C1.67665 8.05658 0.833313 9.35825 0.833313 12.5574V14.2624C0.833313 18.0208 1.97915 19.1666 5.73748 19.1666H14.2625C18.0208 19.1666 19.1666 18.0208 19.1666 14.2624V12.5574C19.1666 8.79909 18.0208 7.65325 14.2625 7.65325ZM9.99998 16.1783C8.46915 16.1783 7.23165 14.9316 7.23165 13.4099C7.23165 11.8791 8.47831 10.6416 9.99998 10.6416C11.5216 10.6416 12.7683 11.8883 12.7683 13.4099C12.7683 14.9408 11.5308 16.1783 9.99998 16.1783Z"/></svg>