<svg xmlns="http://www.w3.org/2000/svg" width="20" height="16" fill="none" viewBox="0 0 20 16"><path fill="#ADB5BD" d="M14.5834 0.208252H5.41671C2.66671 0.208252 0.833374 1.58325 0.833374 4.79159V11.2083C0.833374 14.4166 2.66671 15.7916 5.41671 15.7916H14.5834C17.3334 15.7916 19.1667 14.4166 19.1667 11.2083V4.79159C19.1667 1.58325 17.3334 0.208252 14.5834 0.208252ZM15.0142 5.79075L12.145 8.08242C11.54 8.56825 10.77 8.80659 10 8.80659C9.23004 8.80659 8.45087 8.56825 7.85504 8.08242L4.98587 5.79075C4.69254 5.55242 4.64671 5.11242 4.87587 4.81909C5.11421 4.52575 5.54504 4.47075 5.83837 4.70909L8.70754 7.00075C9.40421 7.55992 10.5867 7.55992 11.2834 7.00075L14.1525 4.70909C14.4459 4.47075 14.8859 4.51659 15.115 4.81909C15.3534 5.11242 15.3075 5.55242 15.0142 5.79075Z"/></svg>