<svg width="18" height="18" viewBox="0 0 18 18" xmlns="http://www.w3.org/2000/svg">
<path d="M9.00002 0.666748C4.40835 0.666748 0.666687 4.40841 0.666687 9.00008C0.666687 13.5917 4.40835 17.3334 9.00002 17.3334C13.5917 17.3334 17.3334 13.5917 17.3334 9.00008C17.3334 4.40841 13.5917 0.666748 9.00002 0.666748ZM12.625 11.9751C12.5084 12.1751 12.3 12.2834 12.0834 12.2834C11.975 12.2834 11.8667 12.2584 11.7667 12.1917L9.18335 10.6501C8.54169 10.2667 8.06669 9.42508 8.06669 8.68341V5.26675C8.06669 4.92508 8.35002 4.64175 8.69169 4.64175C9.03335 4.64175 9.31669 4.92508 9.31669 5.26675V8.68341C9.31669 8.98341 9.56669 9.42508 9.82502 9.57508L12.4084 11.1167C12.7084 11.2917 12.8084 11.6751 12.625 11.9751Z" />
</svg>
