<svg xmlns="http://www.w3.org/2000/svg" width="22" height="22" viewBox="0 0 22 22"><path d="M19.4975 8.41511C19.2317 7.99344 18.9475 7.59927 18.6542 7.23261C18.315 6.80177 17.6733 6.76511 17.2883 7.15011L14.5383 9.90011C14.74 10.5051 14.7767 11.2018 14.5933 11.9259C14.2725 13.2184 13.2275 14.2634 11.935 14.5843C11.2108 14.7676 10.5142 14.7309 9.90916 14.5293C9.90916 14.5293 8.59833 15.8401 7.65416 16.7843C7.19583 17.2426 7.34249 18.0493 7.95666 18.2876C8.93749 18.6634 9.95499 18.8559 11 18.8559C12.6317 18.8559 14.2175 18.3793 15.6658 17.4901C17.1417 16.5734 18.4708 15.2259 19.5433 13.5118C20.4142 12.1276 20.3683 9.79927 19.4975 8.41511Z"/><path d="M12.8517 9.14842L9.14833 12.8518C8.68083 12.3751 8.37833 11.7151 8.37833 11.0001C8.37833 9.56092 9.55166 8.37842 11 8.37842C11.715 8.37842 12.375 8.68092 12.8517 9.14842Z"/><path d="M16.7292 5.27095L13.6217 8.37845C12.9525 7.70012 12.0267 7.29679 11 7.29679C8.94668 7.29679 7.29668 8.95595 7.29668 11.0001C7.29668 12.0268 7.70918 12.9526 8.37834 13.6218L5.28001 16.7293H5.27084C4.25334 15.9043 3.31834 14.8501 2.52084 13.6035C1.60418 12.1643 1.60418 9.82679 2.52084 8.38762C3.58418 6.71929 4.88584 5.40845 6.33418 4.51012C7.78251 3.63012 9.36834 3.14429 11 3.14429C13.0442 3.14429 15.0242 3.89595 16.7292 5.27095Z"/><path d="M13.6217 11.0001C13.6217 12.4392 12.4483 13.6217 11 13.6217C10.945 13.6217 10.8992 13.6217 10.8442 13.6034L13.6033 10.8442C13.6217 10.8992 13.6217 10.9451 13.6217 11.0001Z"/><path d="M19.9558 2.04414C19.6808 1.76914 19.2317 1.76914 18.9567 2.04414L2.04417 18.9658C1.76917 19.2408 1.76917 19.69 2.04417 19.965C2.18167 20.0933 2.35584 20.1666 2.53917 20.1666C2.7225 20.1666 2.89667 20.0933 3.03417 19.9558L19.9558 3.03414C20.24 2.75914 20.24 2.31914 19.9558 2.04414Z"/></svg>