<svg xmlns="http://www.w3.org/2000/svg" width="22" height="22" fill="none" viewBox="0 0 22 22"><path fill="#ADB5BD" d="M11 1.83325C8.59837 1.83325 6.64587 3.78575 6.64587 6.18742C6.64587 8.54325 8.48837 10.4499 10.89 10.5324C10.9634 10.5233 11.0367 10.5233 11.0917 10.5324C11.11 10.5324 11.1192 10.5324 11.1375 10.5324C11.1467 10.5324 11.1467 10.5324 11.1559 10.5324C13.5025 10.4499 15.345 8.54325 15.3542 6.18742C15.3542 3.78575 13.4017 1.83325 11 1.83325Z"/><path fill="#ADB5BD" d="M15.6566 12.9709C13.0991 11.2659 8.9283 11.2659 6.35246 12.9709C5.1883 13.7501 4.54663 14.8042 4.54663 15.9317C4.54663 17.0592 5.1883 18.1042 6.3433 18.8742C7.62663 19.7359 9.3133 20.1667 11 20.1667C12.6866 20.1667 14.3733 19.7359 15.6566 18.8742C16.8116 18.0951 17.4533 17.0501 17.4533 15.9134C17.4441 14.7859 16.8116 13.7409 15.6566 12.9709Z"/></svg>