<svg width="16" height="20" viewBox="0 0 16 20" fill="none" xmlns="http://www.w3.org/2000/svg">
<path d="M13.9584 2.76738L9.38419 1.05321C8.62335 0.769046 7.37669 0.769046 6.61585 1.05321L2.04169 2.76738C0.987521 3.16155 0.125854 4.40821 0.125854 5.52655V12.3374C0.125854 13.419 0.840854 14.8399 1.71169 15.4907L5.65335 18.4332C6.94585 19.4049 9.07252 19.4049 10.365 18.4332L14.3067 15.4907C15.1775 14.8399 15.8925 13.419 15.8925 12.3374V5.52655C15.8742 4.40821 15.0125 3.16155 13.9584 2.76738ZM7.93585 5.44405C9.01752 5.44405 9.89752 6.32405 9.89752 7.40571C9.89752 8.46905 9.06335 9.32155 8.00919 9.35821H7.99085H7.97252C7.95419 9.35821 7.93585 9.35821 7.91752 9.35821C6.81752 9.32155 5.99252 8.46905 5.99252 7.40571C5.98335 6.32405 6.86335 5.44405 7.93585 5.44405ZM10.0075 13.9965C9.44835 14.3632 8.72419 14.5557 8.00002 14.5557C7.27585 14.5557 6.54252 14.3724 5.99252 13.9965C5.47002 13.6482 5.18585 13.1715 5.17669 12.649C5.17669 12.1357 5.47002 11.6407 5.99252 11.2924C7.10169 10.559 8.90752 10.559 10.0167 11.2924C10.5392 11.6407 10.8325 12.1174 10.8325 12.6399C10.8234 13.1532 10.53 13.6482 10.0075 13.9965Z" fill="#ADB5BD"/>
</svg>
