<svg width="20" height="20" viewBox="0 0 20 20" xmlns="http://www.w3.org/2000/svg">
<path d="M19.5298 8.86981L18.0098 7.34981C17.7291 7.03758 17.5633 6.63898 17.5398 6.21981V4.05981C17.5398 3.63546 17.3712 3.22849 17.0712 2.92843C16.7711 2.62838 16.3642 2.45981 15.9398 2.45981H13.7898C13.3706 2.43627 12.972 2.27048 12.6598 1.98981L11.1398 0.469806C10.8391 0.172041 10.433 0.00500488 10.0098 0.00500488C9.58661 0.00500488 9.18052 0.172041 8.87981 0.469806L7.33981 1.98981C7.02959 2.27364 6.62981 2.43993 6.20981 2.45981H4.05981C3.63546 2.45981 3.22849 2.62838 2.92843 2.92843C2.62838 3.22849 2.45981 3.63546 2.45981 4.05981V6.20481C2.43627 6.62398 2.27048 7.02258 1.98981 7.33481L0.469806 8.85981C0.172041 9.16052 0.00500488 9.56661 0.00500488 9.98981C0.00500488 10.413 0.172041 10.8191 0.469806 11.1198L1.98981 12.6398C2.27048 12.952 2.43627 13.3506 2.45981 13.7698V15.9198C2.45981 16.3442 2.62838 16.7511 2.92843 17.0512C3.22849 17.3512 3.63546 17.5198 4.05981 17.5198H6.20481C6.62398 17.5433 7.02258 17.7091 7.33481 17.9898L8.85481 19.5098C9.15552 19.8076 9.56161 19.9746 9.98481 19.9746C10.408 19.9746 10.8141 19.8076 11.1148 19.5098L12.6348 17.9898C12.947 17.7091 13.3456 17.5433 13.7648 17.5198H15.9148C16.3392 17.5198 16.7461 17.3512 17.0462 17.0512C17.3462 16.7511 17.5148 16.3442 17.5148 15.9198V13.7698C17.5383 13.3506 17.7041 12.952 17.9848 12.6398L19.5048 11.1198C19.6582 10.9761 19.781 10.8028 19.8656 10.6104C19.9503 10.4179 19.9952 10.2104 19.9975 10.0001C19.9998 9.78992 19.9596 9.58141 19.8792 9.38715C19.7989 9.19289 19.68 9.01691 19.5298 8.86981ZM5.99981 6.99981C5.99981 6.80202 6.05845 6.60868 6.16834 6.44424C6.27822 6.27979 6.4344 6.15161 6.61712 6.07593C6.79985 6.00024 7.00091 5.98043 7.1949 6.01902C7.38888 6.05761 7.56706 6.15285 7.70691 6.2927C7.84677 6.43255 7.94201 6.61073 7.98059 6.80472C8.01918 6.9987 7.99937 7.19976 7.92369 7.38249C7.848 7.56522 7.71982 7.72139 7.55538 7.83127C7.39093 7.94116 7.19759 7.99981 6.99981 7.99981C6.73459 7.99981 6.48024 7.89445 6.2927 7.70691C6.10516 7.51938 5.99981 7.26502 5.99981 6.99981ZM7.52981 13.5298C7.46031 13.5996 7.37771 13.655 7.28676 13.6927C7.19581 13.7305 7.09829 13.75 6.99981 13.75C6.90132 13.75 6.8038 13.7305 6.71285 13.6927C6.6219 13.655 6.5393 13.5996 6.46981 13.5298C6.33033 13.3887 6.2521 13.1982 6.2521 12.9998C6.2521 12.8014 6.33033 12.6109 6.46981 12.4698L12.4698 6.46981C12.612 6.33733 12.8 6.2652 12.9943 6.26863C13.1886 6.27206 13.374 6.35077 13.5114 6.48818C13.6488 6.6256 13.7276 6.81098 13.731 7.00528C13.7344 7.19958 13.6623 7.38763 13.5298 7.52981L7.52981 13.5298ZM12.9998 13.9998C12.8016 14.0018 12.6073 13.9448 12.4415 13.8362C12.2758 13.7275 12.1461 13.572 12.0688 13.3895C11.9916 13.2069 11.9704 13.0056 12.0078 12.8109C12.0453 12.6163 12.1397 12.4372 12.2792 12.2963C12.4186 12.1555 12.5968 12.0592 12.791 12.0198C12.9853 11.9804 13.1868 11.9996 13.3701 12.075C13.5535 12.1504 13.7102 12.2786 13.8206 12.4432C13.9309 12.6079 13.9898 12.8016 13.9898 12.9998C13.9906 13.1305 13.9656 13.2601 13.9163 13.3811C13.8669 13.5021 13.7942 13.6123 13.7022 13.7051C13.6103 13.798 13.5009 13.8719 13.3804 13.9224C13.2598 13.973 13.1305 13.9993 12.9998 13.9998Z" />
</svg>
