<svg width="54" height="54" viewBox="0 0 54 54" fill="none" xmlns="http://www.w3.org/2000/svg">
<path d="M22.6699 7.5C24.5944 4.16666 29.4056 4.16667 31.3301 7.5L46.0526 33C47.9771 36.3333 45.5714 40.5 41.7224 40.5H12.2776C8.42856 40.5 6.02294 36.3333 7.94744 33L22.6699 7.5Z" fill="#F65815"/>
<path d="M25.9664 29.6269L25.5369 20.1269L25.4564 16.9509H28.5705L28.4631 20.1269L28.0336 29.6269H25.9664ZM27.0134 35.9509C26.4586 35.9509 25.9843 35.7466 25.5906 35.338C25.1969 34.9294 25 34.4094 25 33.7779C25 33.1464 25.1969 32.6264 25.5906 32.2178C25.9843 31.8092 26.4586 31.6049 27.0134 31.6049C27.5861 31.6049 28.0604 31.8092 28.4362 32.2178C28.8121 32.6264 29 33.1464 29 33.7779C29 34.4094 28.8121 34.9294 28.4362 35.338C28.0604 35.7466 27.5861 35.9509 27.0134 35.9509Z" fill="white"/>
</svg>
