<svg width="15" height="15" viewBox="0 0 15 15" xmlns="http://www.w3.org/2000/svg">
	<path d="M0.363393 8.42702L6.86407 14.7352C7.28802 15.1446 7.93405 15.0723 8.27726 14.5667C8.62046 14.0611 8.55989 13.2906 8.13594 12.8813L3.8358 8.71594L13.9906 8.71594C14.5559 8.71594 15 8.18625 15 7.51208C15 6.83792 14.5559 6.30823 13.9906 6.30823L3.8358 6.30823L8.13594 2.11879C8.55989 1.70948 8.64065 0.93901 8.27726 0.433389C8.07537 0.144463 7.79273 0 7.48991 0C7.26783 0 7.04576 0.0963078 6.84388 0.264849L0.363393 6.57307C0.121132 6.78977 0 7.15093 0 7.51208C0 7.84917 0.121132 8.21032 0.363393 8.42702Z" />
</svg>
