<svg width="15" height="15" viewBox="0 0 15 15" xmlns="http://www.w3.org/2000/svg">
	<path d="M14.6366 6.57298L8.13593 0.264756C7.71198 -0.144556 7.06595 -0.0723244 6.72274 0.433297C6.37954 0.938918 6.44011 1.70939 6.86406 2.1187L11.1642 6.28406H1.00942C0.444145 6.28406 0 6.81375 0 7.48792C0 8.16208 0.444145 8.69177 1.00942 8.69177H11.1642L6.86406 12.8812C6.44011 13.2905 6.35935 14.061 6.72274 14.5666C6.92463 14.8555 7.20727 15 7.51009 15C7.73217 15 7.95424 14.9037 8.15612 14.7352L14.6366 8.42693C14.8789 8.21023 15 7.84907 15 7.48792C15 7.15083 14.8789 6.78968 14.6366 6.57298Z" />
</svg>
