<svg width="14" height="14" viewBox="0 0 14 14" xmlns="http://www.w3.org/2000/svg">
	<path d="M12.4 5.14667C11.1933 5.14667 10.7 4.29333 11.3 3.24667C11.6467 2.64 11.44 1.86667 10.8333 1.52L9.68 0.859998C9.15333 0.546665 8.47333 0.733332 8.16 1.26L8.08667 1.38666C7.48667 2.43333 6.5 2.43333 5.89333 1.38666L5.82 1.26C5.52 0.733332 4.84 0.546665 4.31333 0.859998L3.16 1.52C2.55333 1.86667 2.34667 2.64667 2.69333 3.25333C3.3 4.29333 2.80667 5.14667 1.6 5.14667C0.906667 5.14667 0.333334 5.71333 0.333334 6.41333V7.58667C0.333334 8.28 0.900001 8.85333 1.6 8.85333C2.80667 8.85333 3.3 9.70666 2.69333 10.7533C2.34667 11.36 2.55333 12.1333 3.16 12.48L4.31333 13.14C4.84 13.4533 5.52 13.2667 5.83333 12.74L5.90667 12.6133C6.50667 11.5667 7.49333 11.5667 8.1 12.6133L8.17333 12.74C8.48667 13.2667 9.16667 13.4533 9.69333 13.14L10.8467 12.48C11.4533 12.1333 11.66 11.3533 11.3133 10.7533C10.7067 9.70666 11.2 8.85333 12.4067 8.85333C13.1 8.85333 13.6733 8.28666 13.6733 7.58667V6.41333C13.6667 5.72 13.1 5.14667 12.4 5.14667ZM7 9.16667C5.80667 9.16667 4.83333 8.19333 4.83333 7C4.83333 5.80666 5.80667 4.83333 7 4.83333C8.19333 4.83333 9.16667 5.80666 9.16667 7C9.16667 8.19333 8.19333 9.16667 7 9.16667Z" />
</svg>
