<svg width="44" height="44" viewBox="0 0 44 44" xmlns="http://www.w3.org/2000/svg">
<path d="M37.583 18.6817H32.2847C27.9397 18.6817 24.4013 15.1433 24.4013 10.7983V5.5C24.4013 4.49166 23.5763 3.66666 22.568 3.66666H14.7947C9.14801 3.66666 4.58301 7.33333 4.58301 13.8783V30.1217C4.58301 36.6667 9.14801 40.3333 14.7947 40.3333H29.2047C34.8513 40.3333 39.4163 36.6667 39.4163 30.1217V20.515C39.4163 19.5067 38.5913 18.6817 37.583 18.6817ZM21.138 24.805C20.863 25.08 20.5147 25.2083 20.1663 25.2083C19.818 25.2083 19.4697 25.08 19.1947 24.805L17.8747 23.485V31.1667C17.8747 31.9183 17.2513 32.5417 16.4997 32.5417C15.748 32.5417 15.1247 31.9183 15.1247 31.1667V23.485L13.8047 24.805C13.273 25.3367 12.393 25.3367 11.8613 24.805C11.3297 24.2733 11.3297 23.3933 11.8613 22.8617L15.528 19.195C15.6563 19.085 15.7847 18.9933 15.9313 18.92C15.968 18.9017 16.023 18.8833 16.0597 18.865C16.1697 18.8283 16.2797 18.81 16.408 18.7917C16.463 18.7917 16.4997 18.7917 16.5547 18.7917C16.7013 18.7917 16.848 18.8283 16.9947 18.8833C17.013 18.8833 17.013 18.8833 17.0313 18.8833C17.178 18.9383 17.3247 19.0483 17.4347 19.1583C17.453 19.1767 17.4713 19.1767 17.4713 19.195L21.138 22.8617C21.6697 23.3933 21.6697 24.2733 21.138 24.805Z"/>
<path d="M31.9548 16.1517C33.6964 16.17 36.1164 16.17 38.1881 16.17C39.2331 16.17 39.7831 14.9417 39.0498 14.2083C36.4098 11.55 31.6798 6.765 28.9664 4.05166C28.2148 3.3 26.9131 3.81333 26.9131 4.85833V11.2567C26.9131 13.9333 29.1864 16.1517 31.9548 16.1517Z" />
</svg>
