<svg width="40" height="37" viewBox="0 0 40 37" fill="none" xmlns="http://www.w3.org/2000/svg">
<path d="M37.8935 26.1867L26.1602 5.06666C24.5835 2.22499 22.4019 0.666656 20.0002 0.666656C17.5985 0.666656 15.4169 2.22499 13.8402 5.06666L2.10687 26.1867C0.62187 28.8817 0.45687 31.4667 1.64854 33.5017C2.8402 35.5367 5.18687 36.655 8.26687 36.655H31.7335C34.8135 36.655 37.1602 35.5367 38.3519 33.5017C39.5435 31.4667 39.3785 28.8633 37.8935 26.1867ZM18.6252 13.5C18.6252 12.7483 19.2485 12.125 20.0002 12.125C20.7519 12.125 21.3752 12.7483 21.3752 13.5V22.6667C21.3752 23.4183 20.7519 24.0417 20.0002 24.0417C19.2485 24.0417 18.6252 23.4183 18.6252 22.6667V13.5ZM21.3019 29.4683C21.2102 29.5417 21.1185 29.615 21.0269 29.6883C20.9169 29.7617 20.8069 29.8167 20.6969 29.8533C20.5869 29.9083 20.4769 29.945 20.3485 29.9633C20.2385 29.9817 20.1102 30 20.0002 30C19.8902 30 19.7619 29.9817 19.6335 29.9633C19.5235 29.945 19.4135 29.9083 19.3035 29.8533C19.1935 29.8167 19.0835 29.7617 18.9735 29.6883C18.8819 29.615 18.7902 29.5417 18.6985 29.4683C18.3685 29.12 18.1669 28.6433 18.1669 28.1667C18.1669 27.69 18.3685 27.2133 18.6985 26.865C18.7902 26.7917 18.8819 26.7183 18.9735 26.645C19.0835 26.5717 19.1935 26.5167 19.3035 26.48C19.4135 26.425 19.5235 26.3883 19.6335 26.37C19.8719 26.315 20.1285 26.315 20.3485 26.37C20.4769 26.3883 20.5869 26.425 20.6969 26.48C20.8069 26.5167 20.9169 26.5717 21.0269 26.645C21.1185 26.7183 21.2102 26.7917 21.3019 26.865C21.6319 27.2133 21.8335 27.69 21.8335 28.1667C21.8335 28.6433 21.6319 29.12 21.3019 29.4683Z" fill="#F8F9FA"/>
</svg>
