<svg width="14" height="14" viewBox="0 0 14 14" fill="none" xmlns="http://www.w3.org/2000/svg">
<path d="M6.99992 0.333252C3.32659 0.333252 0.333252 3.32659 0.333252 6.99992C0.333252 10.6733 3.32659 13.6666 6.99992 13.6666C10.6733 13.6666 13.6666 10.6733 13.6666 6.99992C13.6666 3.32659 10.6733 0.333252 6.99992 0.333252ZM9.23992 8.53325C9.43325 8.72659 9.43325 9.04659 9.23992 9.23992C9.13992 9.33992 9.01325 9.38659 8.88659 9.38659C8.75992 9.38659 8.63325 9.33992 8.53325 9.23992L6.99992 7.70659L5.46659 9.23992C5.36659 9.33992 5.23992 9.38659 5.11325 9.38659C4.98659 9.38659 4.85992 9.33992 4.75992 9.23992C4.56659 9.04659 4.56659 8.72659 4.75992 8.53325L6.29325 6.99992L4.75992 5.46659C4.56659 5.27325 4.56659 4.95325 4.75992 4.75992C4.95325 4.56659 5.27325 4.56659 5.46659 4.75992L6.99992 6.29325L8.53325 4.75992C8.72659 4.56659 9.04659 4.56659 9.23992 4.75992C9.43325 4.95325 9.43325 5.27325 9.23992 5.46659L7.70659 6.99992L9.23992 8.53325Z" fill="#F8F9FA"/>
</svg>
